HIERARCHY
ROOT Hips
{
	OFFSET	0.00	0.00	0.00
	CHANNELS 6 Xposition Yposition Zposition Zrotation Xrotation Yrotation
	JOINT LeftUpLeg
	{
		OFFSET	 0.126116	-0.014019	-0.065224
		CHANNELS 3 Zrotation Xrotation Yrotation
		JOINT LeftLeg
		{
			OFFSET	 0.000000	 0.000000	 0.569914
			CHANNELS 3 Zrotation Xrotation Yrotation
			JOINT LeftFoot
			{
				OFFSET	 0.000000	 0.000000	 0.544423
				CHANNELS 3 Zrotation Xrotation Yrotation
				JOINT LeftToeBase
				{
					OFFSET	 0.000000	 0.000000	 0.207117
					CHANNELS 3 Zrotation Xrotation Yrotation
					End Site
					{
						OFFSET	 0.000000	 0.000000	 0.207117
					}
				}
			}
		}
	}
	JOINT RightUpLeg
	{
		OFFSET	-0.124023	-0.008373	-0.065224
		CHANNELS 3 Zrotation Xrotation Yrotation
		JOINT RightLeg
		{
			OFFSET	 0.000000	 0.000000	 0.570047
			CHANNELS 3 Zrotation Xrotation Yrotation
			JOINT RightFoot
			{
				OFFSET	 0.000000	 0.000000	 0.544354
				CHANNELS 3 Zrotation Xrotation Yrotation
				JOINT RightToeBase
				{
					OFFSET	 0.000000	 0.000000	 0.207540
					CHANNELS 3 Zrotation Xrotation Yrotation
					End Site
					{
						OFFSET	 0.000000	 0.000000	 0.207540
					}
				}
			}
		}
	}
	JOINT Spine
	{
		OFFSET	 0.000184	-0.007763	 0.117403
		CHANNELS 3 Zrotation Xrotation Yrotation
		JOINT Spine1
		{
			OFFSET	 0.000000	 0.000000	 0.137269
			CHANNELS 3 Zrotation Xrotation Yrotation
			JOINT Spine2
			{
				OFFSET	 0.000000	 0.000000	 0.156879
				CHANNELS 3 Zrotation Xrotation Yrotation
				JOINT LeftShoulder
				{
					OFFSET	 0.080501	-0.002496	 0.160144
					CHANNELS 3 Zrotation Xrotation Yrotation
					JOINT LeftArm
					{
						OFFSET	 0.000000	 0.000000	 0.164363
						CHANNELS 3 Zrotation Xrotation Yrotation
						JOINT LeftForeArm
						{
							OFFSET	 0.000000	 0.000000	 0.364576
							CHANNELS 3 Zrotation Xrotation Yrotation
							JOINT LeftHand
							{
								OFFSET	 0.000000	 0.000000	 0.360812
								CHANNELS 3 Zrotation Xrotation Yrotation
								JOINT LeftHandIndex1
								{
									OFFSET	 0.000000	 0.000000	 0.086006
									CHANNELS 3 Zrotation Xrotation Yrotation
									JOINT LeftHandIndex2
									{
										OFFSET	 0.000000	 0.000000	 0.047236
										CHANNELS 3 Zrotation Xrotation Yrotation
										JOINT LeftHandIndex3
										{
											OFFSET	-0.004284	-0.000551	 0.038166
											CHANNELS 3 Zrotation Xrotation Yrotation
											End Site
											{
												OFFSET	-0.004284	-0.000551	 0.038166
											}
										}
									}
								}
							}
						}
					}
				}
				JOINT Neck
				{
					OFFSET	 0.000000	 0.000000	 0.176489
					CHANNELS 3 Zrotation Xrotation Yrotation
					JOINT Head
					{
						OFFSET	 0.000000	-0.001747	 0.077940
						CHANNELS 3 Zrotation Xrotation Yrotation
						End Site
						{
							OFFSET	 0.000000	-0.001747	 0.077940
						}
					}
				}
				JOINT RightShoulder
				{
					OFFSET	-0.080363	 0.000306	 0.159706
					CHANNELS 3 Zrotation Xrotation Yrotation
					JOINT RightArm
					{
						OFFSET	 0.000000	 0.000000	 0.164196
						CHANNELS 3 Zrotation Xrotation Yrotation
						JOINT RightForeArm
						{
							OFFSET	 0.000000	 0.000000	 0.365611
							CHANNELS 3 Zrotation Xrotation Yrotation
							JOINT RightHand
							{
								OFFSET	 0.000000	 0.000000	 0.360648
								CHANNELS 3 Zrotation Xrotation Yrotation
								JOINT RightHandIndex1
								{
									OFFSET	 0.000000	 0.000000	 0.069977
									CHANNELS 3 Zrotation Xrotation Yrotation
									JOINT RightHandIndex2
									{
										OFFSET	 0.000000	 0.000000	 0.052305
										CHANNELS 3 Zrotation Xrotation Yrotation
										JOINT RightHandIndex3
										{
											OFFSET	 0.009002	-0.000782	 0.042196
											CHANNELS 3 Zrotation Xrotation Yrotation
											End Site
											{
												OFFSET	 0.009002	-0.000782	 0.042196
											}
										}
									}
								}
							}
						}
					}
				}
			}
		}
	}
}
MOTION
Frames:    11
Frame Time: 0.03333334
-0.000641	 0.020002	 1.267124	 0.002875	-0.001717	-0.185456	-4.664206	-3.094713	 178.811400	 1.430061	-15.001690	-0.883336	-7.127785	 72.859760	 0.992715	-2.385833	 28.452760	 0.000004	 4.593391	-3.745540	-178.469000	-1.402603	-15.919290	 0.922886	 7.102349	 73.166590	-1.090700	 2.384658	 28.388730	 0.000004	 4.262723	 2.844610	-0.120617	 2.171025	 3.327704	 0.874915	-6.539011	-4.046123	-1.393098	-91.776090	 78.527450	 179.999900	 68.479320	 44.007420	-56.764790	-7.985855	 2.848812	-7.131968	-29.115310	 3.396296	-4.357442	-2.635965	 4.993658	 6.788941	-5.165319	 0.784187	 3.516649	-5.225038	 0.466231	 0.424329	-0.000002	-3.783157	-0.089647	-6.376255	 4.827998	 0.269067	 89.782050	 78.203900	-180.000000	-62.967700	 41.323940	 53.303570	 7.179363	 5.736602	 13.344160	 28.171340	 2.402370	 8.843886	 6.112037	 4.509576	-0.364401	 4.968462	 1.518543	-9.347576	 5.168945	 0.703820	 2.021906
-0.000634	 0.020226	 1.263751	 0.003099	-0.002152	-0.181001	-4.806533	-4.297826	 178.909500	 1.386733	-17.482660	-1.038226	-7.955979	 74.114590	 1.857225	-2.385833	 28.452760	 0.000004	 4.740057	-4.882809	-178.567700	-1.359977	-18.264430	 1.067887	 7.894061	 74.352490	-1.916325	 2.384658	 28.388730	 0.000004	 4.233472	 2.911124	-0.129484	 2.151200	 3.095507	 0.881023	-6.482235	-3.752028	-1.360319	-91.776230	 78.527430	-180.000000	 68.311990	 43.971840	-56.658940	-7.971252	 2.898769	-7.257885	-29.115330	 3.396284	-4.357430	-2.635965	 4.993658	 6.788941	-5.165319	 0.784187	 3.516649	-5.225038	 0.466231	 0.424329	-0.000002	-3.783157	-0.089647	-6.334200	 4.974118	 0.275389	 89.782020	 78.203890	-180.000000	-62.771930	 40.935860	 53.743460	 6.700959	 5.566029	 13.260020	 28.214760	 2.075971	 8.645817	 6.112037	 4.509576	-0.364401	 4.968462	 1.518543	-9.347576	 5.168945	 0.703820	 2.021906
-0.000626	 0.020481	 1.259959	 0.003477	-0.002219	-0.174478	-4.962263	-5.479514	 179.003400	 1.336571	-19.920910	-1.194628	-8.914250	 75.344960	 2.851599	-2.385833	 28.452760	 0.000004	 4.899728	-6.013823	-178.667500	-1.310672	-20.597150	 1.216066	 8.816520	 75.529400	-2.872806	 2.384658	 28.388730	 0.000004	 4.175838	 2.985131	-0.138359	 2.116798	 2.835199	 0.882715	-6.381500	-3.424871	-1.316573	-91.776180	 78.527470	 180.000000	 68.106930	 43.936660	-56.517210	-7.951315	 2.954924	-7.399522	-29.115300	 3.396265	-4.357430	-2.635965	 4.993658	 6.788941	-5.165319	 0.784187	 3.516649	-5.225038	 0.466231	 0.424329	-0.000002	-3.783157	-0.089647	-6.250015	 5.142203	 0.280916	 89.782180	 78.203890	 179.999900	-62.517930	 40.342860	 54.600070	 6.052037	 5.209911	 12.839520	 28.379770	 1.586652	 8.356107	 6.112037	 4.509576	-0.364401	 4.968462	 1.518543	-9.347576	 5.168945	 0.703820	 2.021906
-0.000618	 0.020768	 1.255759	 0.004048	-0.001307	-0.165019	-5.132161	-6.647703	 179.092800	 1.279086	-22.331450	-1.354083	-10.041050	 76.557480	 4.014602	-2.385833	 28.452760	 0.000004	 5.072670	-7.141599	-178.769400	-1.254213	-22.922100	 1.368346	 9.905892	 76.698630	-3.996336	 2.384658	 28.388730	 0.000004	 4.080609	 3.065397	-0.146898	 2.063396	 2.548725	 0.877644	-6.223280	-3.067919	-1.259936	-91.776160	 78.527470	 180.000000	 67.856800	 43.901820	-56.333130	-7.925888	 3.011621	-7.542582	-29.115330	 3.396298	-4.357414	-2.635965	 4.993658	 6.788941	-5.165319	 0.784187	 3.516649	-5.225038	 0.466231	 0.424329	-0.000002	-3.783157	-0.089647	-6.110005	 5.332543	 0.284790	 89.782120	 78.203890	 180.000000	-61.984600	 39.538140	 55.856780	 5.154944	 4.702992	 12.164160	 28.592580	 0.979378	 8.000182	 6.112037	 4.509576	-0.364401	 4.968462	 1.518543	-9.347576	 5.168945	 0.703820	 2.021906
-0.000609	 0.021030	 1.251976	 0.004585	-0.000405	-0.155667	-5.299069	-7.605631	 179.165800	 1.225602	-24.310640	-1.489164	-11.166140	 77.548230	 5.154393	-2.385833	 28.452760	 0.000004	 5.210247	-8.072490	-178.853700	-1.201722	-24.840630	 1.497982	 10.935540	 77.660670	-5.069118	 2.384658	 28.388730	 0.000004	 3.966524	 3.136238	-0.152072	 2.001613	 2.295265	 0.866367	-6.038928	-2.754646	-1.202253	-91.776180	 78.527470	 180.000000	 67.602770	 43.868390	-56.118080	-7.898997	 3.067140	-7.682718	-29.115350	 3.396291	-4.357419	-2.635965	 4.993658	 6.788941	-5.165319	 0.784187	 3.516649	-5.225038	 0.466231	 0.424329	-0.000002	-3.783157	-0.089647	-5.941541	 5.505739	 0.285931	 89.782100	 78.203850	 180.000000	-61.054440	 38.526070	 56.859910	 3.932077	 4.397305	 12.149630	 28.451370	 0.329506	 7.475636	 6.112037	 4.509576	-0.364401	 4.968462	 1.518543	-9.347576	 5.168945	 0.703820	 2.021906
-0.000598	 0.021300	 1.248160	 0.005123	 0.000544	-0.145564	-5.449690	-8.500301	 179.231400	 1.170149	-26.159480	-1.619217	-12.365210	 78.470280	 6.381706	-2.385833	 28.452760	 0.000004	 5.361367	-8.944088	-178.935000	-1.147344	-26.638560	 1.623176	 12.092300	 78.557570	-6.253008	 2.384658	 28.388730	 0.000004	 3.824706	 3.205652	-0.154587	 1.926439	 2.046541	 0.848095	-5.813668	-2.449562	-1.138332	-91.776110	 78.527490	 179.999900	 67.319360	 43.830310	-55.842760	-7.954981	 3.128348	-7.837245	-29.031290	 3.407353	-4.343730	-2.635965	 4.993658	 6.788941	-5.165319	 0.784187	 3.516649	-5.225038	 0.466231	 0.424329	-0.000002	-3.783157	-0.089647	-5.731527	 5.680120	 0.284557	 89.782100	 78.203890	 180.000000	-59.311240	 37.081380	 57.076330	 2.174265	 4.582185	 13.936770	 27.972340	-0.430389	 6.673945	 6.112037	 4.509576	-0.364401	 4.968462	 1.518543	-9.347576	 5.168945	 0.703820	 2.021906
-0.000584	 0.021606	 1.243982	 0.005674	 0.001592	-0.133874	-5.613969	-9.419154	 179.297700	 1.107235	-28.059710	-1.757267	-13.819760	 79.412430	 7.865534	-2.385833	 28.452760	 0.000004	 5.525269	-9.841893	-179.019800	-1.085696	-28.491160	 1.756380	 13.495580	 79.476520	-7.684565	 2.384658	 28.388730	 0.000004	 3.637712	 3.279249	-0.153862	 1.828861	 1.782546	 0.819679	-5.520443	-2.128226	-1.061870	-91.776130	 78.527450	 180.000000	 66.959390	 43.775470	-55.469960	-7.946197	 3.191966	-7.998037	-29.004580	 3.410966	-4.339447	-2.635965	 4.993658	 6.788941	-5.165319	 0.784187	 3.516649	-5.225038	 0.466231	 0.424329	-0.000002	-3.783157	-0.089647	-5.454014	 5.870142	 0.279831	 89.782170	 78.203890	 179.999900	-56.629860	 35.228160	 58.353450	-0.014708	 4.270199	 14.878910	 27.142080	-1.287109	 5.574506	 6.112037	 4.509576	-0.364401	 4.968462	 1.518543	-9.347576	 5.168945	 0.703820	 2.021906
-0.000569	 0.021887	 1.240220	 0.006118	 0.002486	-0.122886	-5.760329	-10.195420	 179.352600	 1.049015	-29.666440	-1.877856	-15.271550	 80.203270	 9.342278	-2.385833	 28.452760	 0.000004	 5.670527	-10.602010	-179.092800	-1.028706	-30.060240	 1.872910	 14.895280	 80.249500	-9.108483	 2.384658	 28.388730	 0.000004	 3.442778	 3.342316	-0.149982	 1.728286	 1.556172	 0.786514	-5.217661	-1.854686	-0.988344	-91.776180	 78.527450	 180.000000	 66.592220	 43.711220	-55.058130	-7.937812	 3.250455	-8.145825	-28.978650	 3.414346	-4.335183	-2.635965	 4.993658	 6.788941	-5.165319	 0.784187	 3.516649	-5.225038	 0.466231	 0.424329	-0.000002	-3.783157	-0.089647	-5.164165	 6.037156	 0.272491	 89.782100	 78.203850	 180.000000	-53.596440	 33.451950	 60.899210	-2.026485	 3.443642	 13.898680	 26.215800	-1.974929	 4.497873	 6.112037	 4.509576	-0.364401	 4.968462	 1.518543	-9.347576	 5.168945	 0.703820	 2.021906
-0.000551	 0.022157	 1.236493	 0.006453	 0.003285	-0.112061	-5.900455	-10.906680	 179.402400	 0.991308	-31.139720	-1.991869	-16.827980	 80.922400	 10.921750	-2.385833	 28.452760	 0.000004	 5.809109	-11.299590	-179.160500	-0.972267	-31.500750	 1.983191	 16.394460	 80.953430	-10.630130	 2.384658	 28.388730	 0.000004	 3.231358	 3.399974	-0.143114	 1.620075	 1.349190	 0.747637	-4.891498	-1.606216	-0.913619	-91.776170	 78.527450	 180.000000	 66.187830	 43.629190	-54.556840	-7.927327	 3.323360	-8.330251	-28.951850	 3.417888	-4.330847	-2.635965	 4.993658	 6.788941	-5.165319	 0.784187	 3.516649	-5.225038	 0.466231	 0.424329	-0.000002	-3.783157	-0.089647	-4.849284	 6.193208	 0.262481	 89.782190	 78.203900	 179.999900	-49.877250	 31.323890	 62.878540	-4.141250	 2.962901	 14.219150	 24.943590	-2.444373	 3.338711	 6.112037	 4.509576	-0.364401	 4.968462	 1.518543	-9.347576	 5.168945	 0.703820	 2.021906
-0.000526	 0.022480	 1.231844	 0.006718	 0.004099	-0.098802	-6.067001	-11.716540	 179.458300	 0.920141	-32.818830	-2.126231	-18.935040	 81.732910	 13.055250	-2.385833	 28.452760	 0.000004	 5.973248	-12.095030	-179.238700	-0.902719	-33.144120	 2.113252	 18.421170	 81.747900	-12.682730	 2.384658	 28.388730	 0.000004	 2.949264	 3.464319	-0.130897	 1.476631	 1.118300	 0.692139	-4.458839	-1.330834	-0.819761	-91.776150	 78.527430	 180.000000	 65.640670	 43.501720	-53.819760	-7.910591	 3.434540	-8.611687	-28.918260	 3.422316	-4.325379	-2.635965	 4.993658	 6.788941	-5.165319	 0.784187	 3.516649	-5.225038	 0.466231	 0.424329	-0.000002	-3.783157	-0.089647	-4.428485	 6.371161	 0.246580	 89.782080	 78.203890	-180.000000	-44.393360	 28.579600	 65.372020	-6.819083	 2.362550	 14.826420	 23.112630	-2.799558	 1.877769	 6.112037	 4.509576	-0.364401	 4.968462	 1.518543	-9.347576	 5.168945	 0.703820	 2.021906
-0.000502	 0.022734	 1.227807	 0.006793	 0.004611	-0.087713	-6.205251	-12.363240	 179.502800	 0.858831	-34.160990	-2.237335	-20.942940	 82.371490	 15.084400	-2.385833	 28.452760	 0.000004	 6.109241	-12.730980	-179.301800	-0.842853	-34.458750	 2.220850	 20.349480	 82.374890	-14.631960	 2.384658	 28.388730	 0.000004	 2.690476	 3.513760	-0.117187	 1.345706	 0.941148	 0.638410	-4.063770	-1.120844	-0.738134	-91.776190	 78.527470	 180.000000	 65.132860	 43.369630	-53.109260	-7.896359	 3.527522	-8.847217	-28.888940	 3.426229	-4.320632	-2.635965	 4.993658	 6.788941	-5.165319	 0.784187	 3.516649	-5.225038	 0.466231	 0.424329	-0.000002	-3.783157	-0.089647	-4.041928	 6.510531	 0.229970	 89.782180	 78.203850	 179.999900	-39.278460	 26.417800	 68.403450	-9.104277	 1.648746	 14.033440	 21.437940	-2.916600	 0.640985	 6.112037	 4.509576	-0.364401	 4.968462	 1.518543	-9.347576	 5.168945	 0.703820	 2.021906
